<?xml version="1.0" encoding="utf-8"?>
<!-- Generator: Adobe Illustrator 25.1.0, SVG Export Plug-In . SVG Version: 6.00 Build 0)  -->
<svg version="1.1" id="Слой_1" xmlns="http://www.w3.org/2000/svg" xmlns:xlink="http://www.w3.org/1999/xlink" x="0px" y="0px"
	 viewBox="0 0 388 303.9" style="enable-background:new 0 0 388 303.9;" xml:space="preserve">
<style type="text/css">
	.st0{fill:#CA103D;}
</style>
<path class="st0" d="M376.5,38.6c-1.9,8.5-3.4,17.2-6.9,25.4c-2.2,5.1-3.4,10.6-5.4,15.8c-2.2,6.1-4.8,12.1-7.4,18.1
	c-12.7,29.9-30.9,56.1-53.4,79.3c-24.4,25.3-52.5,45.4-84.4,60.3c-15.7,7.3-32,13.1-48.7,17.4c-13.6,3.5-27.4,5.6-41.4,7.3
	c-11,1.3-21.9,1.1-32.8,1.1c-29.5,0-59,0-88.5,0v0.7v32.2H381V264V8.3C380.2,18.5,378.7,28.6,376.5,38.6z"/>
</svg>
